HIERARCHY
ROOT mixamorig:Hips
{
	OFFSET 0.000000 201.639420 0.000000
	CHANNELS 6 Xposition Yposition Zposition Xrotation Yrotation Zrotation
	JOINT mixamorig:Spine
	{
		OFFSET 0.006200 19.524994 -2.481800
		CHANNELS 3 Xrotation Yrotation Zrotation
		JOINT mixamorig:Spine1
		{
			OFFSET -0.000900 22.835007 -2.825400
			CHANNELS 3 Xrotation Yrotation Zrotation
			JOINT mixamorig:Spine2
			{
				OFFSET -0.020600 26.552490 -3.193300
				CHANNELS 3 Xrotation Yrotation Zrotation
				JOINT mixamorig:Neck
				{
					OFFSET -0.060000 30.701813 1.352200
					CHANNELS 3 Xrotation Yrotation Zrotation
					JOINT mixamorig:Head
					{
						OFFSET -0.087200 22.547607 3.670900
						CHANNELS 3 Xrotation Yrotation Zrotation
						JOINT mixamorig:HeadTop_End
						{
							OFFSET -0.830600 40.355194 7.893500
							CHANNELS 3 Xrotation Yrotation Zrotation
							End Site
							{
								OFFSET 0.000000 30.592346 0.000000
							}
						}
						JOINT mixamorig:RightEye
						{
							OFFSET -6.302100 18.118591 16.197100
							CHANNELS 3 Xrotation Yrotation Zrotation
							End Site
							{
								OFFSET 0.000000 30.592346 0.000000
							}
						}
						JOINT mixamorig:LeftEye
						{
							OFFSET 6.741500 18.382690 16.401899
							CHANNELS 3 Xrotation Yrotation Zrotation
							End Site
							{
								OFFSET 0.000000 30.592346 0.000000
							}
						}
					}
				}
				JOINT mixamorig:LeftShoulder
				{
					OFFSET 11.924900 18.230499 1.425400
					CHANNELS 3 Xrotation Yrotation Zrotation
					JOINT mixamorig:LeftArm
					{
						OFFSET 25.435989 -0.697632 -5.229300
						CHANNELS 3 Xrotation Yrotation Zrotation
						JOINT mixamorig:LeftForeArm
						{
							OFFSET 54.684776 0.000000 0.000000
							CHANNELS 3 Xrotation Yrotation Zrotation
							JOINT mixamorig:LeftHand
							{
								OFFSET 55.098175 0.000000 0.000000
								CHANNELS 3 Xrotation Yrotation Zrotation
								JOINT mixamorig:LeftHandMiddle1
								{
									OFFSET 23.369751 0.000000 0.000000
									CHANNELS 3 Xrotation Yrotation Zrotation
									JOINT mixamorig:LeftHandMiddle2
									{
										OFFSET 6.378677 0.000000 0.000000
										CHANNELS 3 Xrotation Yrotation Zrotation
										JOINT mixamorig:LeftHandMiddle3
										{
											OFFSET 6.148331 0.000000 0.000000
											CHANNELS 3 Xrotation Yrotation Zrotation
											JOINT mixamorig:LeftHandMiddle4
											{
												OFFSET 6.582504 0.000000 0.000000
												CHANNELS 3 Xrotation Yrotation Zrotation
												End Site
												{
													OFFSET -1.168900 6.395691 1.028606
												}
											}
										}
									}
								}
								JOINT mixamorig:LeftHandThumb1
								{
									OFFSET 7.235672 -3.848206 5.434273
									CHANNELS 3 Xrotation Yrotation Zrotation
									JOINT mixamorig:LeftHandThumb2
									{
										OFFSET 6.568451 -3.792297 3.792300
										CHANNELS 3 Xrotation Yrotation Zrotation
										JOINT mixamorig:LeftHandThumb3
										{
											OFFSET 6.063080 -3.500519 3.500518
											CHANNELS 3 Xrotation Yrotation Zrotation
											JOINT mixamorig:LeftHandThumb4
											{
												OFFSET 4.793182 -2.767334 2.767349
												CHANNELS 3 Xrotation Yrotation Zrotation
												End Site
												{
													OFFSET 0.101639 6.054260 1.275483
												}
											}
										}
									}
								}
								JOINT mixamorig:LeftHandIndex1
								{
									OFFSET 23.101074 -0.309540 4.992809
									CHANNELS 3 Xrotation Yrotation Zrotation
									JOINT mixamorig:LeftHandIndex2
									{
										OFFSET 6.226883 0.000000 0.000000
										CHANNELS 3 Xrotation Yrotation Zrotation
										JOINT mixamorig:LeftHandIndex3
										{
											OFFSET 6.094330 0.000000 0.000000
											CHANNELS 3 Xrotation Yrotation Zrotation
											JOINT mixamorig:LeftHandIndex4
											{
												OFFSET 5.482605 0.000000 0.000000
												CHANNELS 3 Xrotation Yrotation Zrotation
												End Site
												{
													OFFSET -1.427902 5.233032 0.797164
												}
											}
										}
									}
								}
								JOINT mixamorig:LeftHandRing1
								{
									OFFSET 22.299240 0.021149 -3.964172
									CHANNELS 3 Xrotation Yrotation Zrotation
									JOINT mixamorig:LeftHandRing2
									{
										OFFSET 6.321869 0.000000 0.000000
										CHANNELS 3 Xrotation Yrotation Zrotation
										JOINT mixamorig:LeftHandRing3
										{
											OFFSET 5.899796 0.000000 0.000000
											CHANNELS 3 Xrotation Yrotation Zrotation
											JOINT mixamorig:LeftHandRing4
											{
												OFFSET 6.517899 0.000000 0.000000
												CHANNELS 3 Xrotation Yrotation Zrotation
												End Site
												{
													OFFSET -1.637299 6.232208 0.980890
												}
											}
										}
									}
								}
								JOINT mixamorig:LeftHandPinky1
								{
									OFFSET 20.463791 -0.302338 -8.562233
									CHANNELS 3 Xrotation Yrotation Zrotation
									JOINT mixamorig:LeftHandPinky2
									{
										OFFSET 6.908646 0.000000 0.000000
										CHANNELS 3 Xrotation Yrotation Zrotation
										JOINT mixamorig:LeftHandPinky3
										{
											OFFSET 4.622849 0.000000 0.000000
											CHANNELS 3 Xrotation Yrotation Zrotation
											JOINT mixamorig:LeftHandPinky4
											{
												OFFSET 5.216080 0.000000 0.000000
												CHANNELS 3 Xrotation Yrotation Zrotation
												End Site
												{
													OFFSET -0.606308 5.116241 0.814926
												}
											}
										}
									}
								}
							}
						}
					}
				}
				JOINT mixamorig:RightShoulder
				{
					OFFSET -12.001300 18.284088 1.348900
					CHANNELS 3 Xrotation Yrotation Zrotation
					JOINT mixamorig:RightArm
					{
						OFFSET -25.308500 -0.751312 -5.164599
						CHANNELS 3 Xrotation Yrotation Zrotation
						JOINT mixamorig:RightForeArm
						{
							OFFSET -54.684429 0.000000 0.000000
							CHANNELS 3 Xrotation Yrotation Zrotation
							JOINT mixamorig:RightHand
							{
								OFFSET -55.150291 0.000000 0.000000
								CHANNELS 3 Xrotation Yrotation Zrotation
								JOINT mixamorig:RightHandMiddle1
								{
									OFFSET -23.317566 0.000000 0.000000
									CHANNELS 3 Xrotation Yrotation Zrotation
									JOINT mixamorig:RightHandMiddle2
									{
										OFFSET -6.378403 0.000000 0.000000
										CHANNELS 3 Xrotation Yrotation Zrotation
										JOINT mixamorig:RightHandMiddle3
										{
											OFFSET -6.148193 0.000000 0.000000
											CHANNELS 3 Xrotation Yrotation Zrotation
											JOINT mixamorig:RightHandMiddle4
											{
												OFFSET -6.583389 0.000000 0.000000
												CHANNELS 3 Xrotation Yrotation Zrotation
												End Site
												{
													OFFSET 1.171692 6.395905 1.029786
												}
											}
										}
									}
								}
								JOINT mixamorig:RightHandThumb1
								{
									OFFSET -7.190521 -3.860474 5.435846
									CHANNELS 3 Xrotation Yrotation Zrotation
									JOINT mixamorig:RightHandThumb2
									{
										OFFSET -6.567429 -3.791718 3.791708
										CHANNELS 3 Xrotation Yrotation Zrotation
										JOINT mixamorig:RightHandThumb3
										{
											OFFSET -6.062469 -3.500153 3.500166
											CHANNELS 3 Xrotation Yrotation Zrotation
											JOINT mixamorig:RightHandThumb4
											{
												OFFSET -4.792618 -2.767029 2.767022
												CHANNELS 3 Xrotation Yrotation Zrotation
												End Site
												{
													OFFSET -0.100327 6.053253 1.276754
												}
											}
										}
									}
								}
								JOINT mixamorig:RightHandIndex1
								{
									OFFSET -23.048981 -0.310791 4.992554
									CHANNELS 3 Xrotation Yrotation Zrotation
									JOINT mixamorig:RightHandIndex2
									{
										OFFSET -6.227539 0.000000 0.000000
										CHANNELS 3 Xrotation Yrotation Zrotation
										JOINT mixamorig:RightHandIndex3
										{
											OFFSET -6.095047 0.000000 0.000000
											CHANNELS 3 Xrotation Yrotation Zrotation
											JOINT mixamorig:RightHandIndex4
											{
												OFFSET -5.484772 0.000000 0.000000
												CHANNELS 3 Xrotation Yrotation Zrotation
												End Site
												{
													OFFSET 1.420593 5.237305 0.797056
												}
											}
										}
									}
								}
								JOINT mixamorig:RightHandRing1
								{
									OFFSET -22.246323 0.020569 -3.963762
									CHANNELS 3 Xrotation Yrotation Zrotation
									JOINT mixamorig:RightHandRing2
									{
										OFFSET -6.322128 0.000000 0.000000
										CHANNELS 3 Xrotation Yrotation Zrotation
										JOINT mixamorig:RightHandRing3
										{
											OFFSET -5.900024 0.000000 0.000000
											CHANNELS 3 Xrotation Yrotation Zrotation
											JOINT mixamorig:RightHandRing4
											{
												OFFSET -6.518356 0.000000 0.000000
												CHANNELS 3 Xrotation Yrotation Zrotation
												End Site
												{
													OFFSET 1.636398 6.232697 0.982186
												}
											}
										}
									}
								}
								JOINT mixamorig:RightHandPinky1
								{
									OFFSET -20.411011 -0.303314 -8.561701
									CHANNELS 3 Xrotation Yrotation Zrotation
									JOINT mixamorig:RightHandPinky2
									{
										OFFSET -6.907349 0.000000 0.000000
										CHANNELS 3 Xrotation Yrotation Zrotation
										JOINT mixamorig:RightHandPinky3
										{
											OFFSET -4.623840 0.000000 0.000000
											CHANNELS 3 Xrotation Yrotation Zrotation
											JOINT mixamorig:RightHandPinky4
											{
												OFFSET -5.218353 0.000000 0.000000
												CHANNELS 3 Xrotation Yrotation Zrotation
												End Site
												{
													OFFSET 0.602097 5.118835 0.816273
												}
											}
										}
									}
								}
							}
						}
					}
				}
			}
		}
	}
	JOINT mixamorig:LeftUpLeg
	{
		OFFSET 18.168400 -13.561905 -0.039000
		CHANNELS 3 Xrotation Yrotation Zrotation
		JOINT mixamorig:LeftLeg
		{
			OFFSET 0.577358 -80.825211 -3.695000
			CHANNELS 3 Xrotation Yrotation Zrotation
			JOINT mixamorig:LeftFoot
			{
				OFFSET -0.577356 -83.370262 -6.520700
				CHANNELS 3 Xrotation Yrotation Zrotation
				JOINT mixamorig:LeftToeBase
				{
					OFFSET 0.750401 -20.798306 25.135401
					CHANNELS 3 Xrotation Yrotation Zrotation
					JOINT mixamorig:LeftToe_End
					{
						OFFSET -0.000500 0.001200 19.917799
						CHANNELS 3 Xrotation Yrotation Zrotation
						End Site
						{
							OFFSET 0.000000 19.917805 0.000000
						}
					}
				}
			}
		}
	}
	JOINT mixamorig:RightUpLeg
	{
		OFFSET -18.162500 -13.585098 -0.041000
		CHANNELS 3 Xrotation Yrotation Zrotation
		JOINT mixamorig:RightLeg
		{
			OFFSET -0.595024 -80.945297 -3.631900
			CHANNELS 3 Xrotation Yrotation Zrotation
			JOINT mixamorig:RightFoot
			{
				OFFSET 0.595024 -83.218193 -6.561200
				CHANNELS 3 Xrotation Yrotation Zrotation
				JOINT mixamorig:RightToeBase
				{
					OFFSET -0.753601 -20.807106 25.115000
					CHANNELS 3 Xrotation Yrotation Zrotation
					JOINT mixamorig:RightToe_End
					{
						OFFSET 0.000299 0.001700 19.918200
						CHANNELS 3 Xrotation Yrotation Zrotation
						End Site
						{
							OFFSET 0.000000 19.918203 0.000000
						}
					}
				}
			}
		}
	}
}
MOTION
Frames: 4
Frame Time: 0.033333
-0.233595 200.653534 -0.572830 -5.108439 1.566848 1.403061 5.728125 -2.642951 -3.799362 4.480123 -0.750498 0.355717 1.094098 -0.866341 0.337035 -5.417748 1.408356 3.404638 3.199967 -1.646449 -1.011192 -0.000000 -0.000000 0.000000 -0.000000 -0.000000 0.000000 -0.000000 -0.000000 0.000000 0.725952 -3.298797 -3.605954 6.909255 -15.655892 -76.361529 -0.000010 -18.928916 -0.000014 -24.146971 4.836450 2.679097 0.275410 3.947127 -12.805221 0.929371 3.168052 -32.691591 0.531321 2.439750 -24.568225 -0.000001 0.000000 -0.000004 6.447074 10.947467 14.475450 5.982043 12.646038 1.351380 -12.454721 -22.458278 6.202570 0.000001 0.000000 -0.000002 0.219675 3.702067 -13.218714 0.091081 1.030103 -10.105460 0.091078 1.030102 -10.105460 -0.000000 0.000000 -0.000002 0.533980 4.672892 -20.676504 1.134718 3.466729 -36.239030 0.786143 2.933242 -30.000769 -0.000001 0.000000 -0.000000 0.490718 4.576281 -19.130081 1.213170 3.571101 -37.517157 0.844575 3.032074 -31.123745 -0.000001 0.000000 0.000002 0.080587 6.848725 11.317541 1.747881 -3.702340 72.399459 -0.000002 13.064411 -0.000011 -4.395432 5.921370 -17.176182 2.772672 -6.512918 65.430091 3.890264 -4.593738 80.511456 3.890254 -4.593723 80.511442 0.000000 -0.000001 0.000002 13.625288 -5.511719 2.432794 6.358372 -14.447604 -2.112210 -5.504772 -5.510959 -14.718513 -0.000002 0.000000 0.000004 2.772672 -6.512916 65.430091 3.890244 -4.593701 80.511463 3.890255 -4.593725 80.511422 -0.000000 0.000001 -0.000000 2.772676 -6.512927 65.430084 3.890263 -4.593733 80.511470 3.890238 -4.593704 80.511422 -0.000000 0.000000 -0.000002 2.772670 -6.512908 65.430098 3.890257 -4.593727 80.511456 3.890248 -4.593718 80.511435 -0.000001 -0.000000 -0.000002 -2.261562 6.206003 -0.850339 9.754051 -2.439013 0.055144 -2.272589 -0.201051 0.428966 -1.868440 0.000005 -0.000000 -0.000000 0.000000 0.000000 -6.707303 -15.264780 -7.887861 12.079158 6.288364 -0.786137 -1.352488 -0.367026 4.088767 -2.086503 0.000005 0.000001 -0.000000 -0.000001 -0.000000 
-0.222960 200.655991 -0.525423 -5.076700 1.582566 1.286598 5.712891 -2.642920 -3.649670 4.480123 -0.750499 0.331457 1.094098 -0.866342 0.312848 -5.417751 1.408356 3.404639 3.199970 -1.662285 -1.014491 -0.000000 0.000000 -0.000000 -0.000000 0.000000 -0.000000 -0.000000 0.000000 -0.000000 0.680525 -3.319916 -3.579184 6.858606 -15.677878 -76.431019 0.000004 -18.695310 0.000028 -24.073917 4.636275 2.620888 0.275685 3.948103 -12.815128 0.929916 3.168904 -32.701515 0.531742 2.440670 -24.578103 -0.000000 -0.000000 0.000002 6.446248 10.956512 14.477406 5.983318 12.655258 1.352318 -12.451436 -22.447931 6.206580 -0.000001 0.000000 -0.000001 0.219908 3.703054 -13.228611 0.091257 1.031098 -10.115326 0.091257 1.031099 -10.115357 -0.000000 0.000000 -0.000002 0.534382 4.673822 -20.686396 1.135318 3.467546 -36.248958 0.786647 2.934115 -30.010663 -0.000001 0.000000 0.000003 0.491102 4.577221 -19.139983 1.213790 3.571904 -37.527091 0.845097 3.032940 -31.133641 -0.000001 0.000000 -0.000001 0.026262 6.855599 11.273494 1.756592 -3.675774 72.448650 -0.000001 13.098334 -0.000003 -4.512119 5.904586 -17.124853 2.772671 -6.512918 65.430098 3.890267 -4.593737 80.511456 3.890252 -4.593723 80.511435 0.000000 -0.000000 -0.000000 13.625288 -5.511719 2.432802 6.358369 -14.447602 -2.112212 -5.504775 -5.510962 -14.718516 -0.000002 0.000002 0.000002 2.772671 -6.512917 65.430098 3.890244 -4.593699 80.511456 3.890254 -4.593725 80.511422 -0.000000 -0.000000 -0.000001 2.772676 -6.512926 65.430091 3.890263 -4.593734 80.511470 3.890236 -4.593703 80.511422 -0.000001 -0.000001 0.000001 2.772669 -6.512909 65.430105 3.890255 -4.593728 80.511463 3.890248 -4.593720 80.511435 -0.000001 0.000001 -0.000001 -2.416154 6.177167 -0.713382 9.994574 -2.414381 0.055003 -2.404259 -0.213911 0.422136 -1.868436 -0.000004 0.000000 0.000000 -0.000000 -0.000000 -6.634962 -15.281099 -7.754340 11.949193 6.266841 -0.773830 -1.298729 -0.357137 4.084152 -2.086502 -0.000004 0.000001 -0.000000 -0.000000 -0.000000 
-0.233975 200.658783 -0.476234 -5.024701 1.598489 1.168316 5.681237 -2.640425 -3.481589 4.480122 -0.750498 0.306314 1.094097 -0.870966 0.287780 -5.432471 1.408356 3.401791 3.179979 -1.693809 -1.032092 -0.000000 0.000000 -0.000000 -0.000000 0.000000 -0.000000 -0.000000 0.000000 -0.000000 0.631691 -3.338255 -3.551578 6.818712 -15.725599 -76.497818 -0.000005 -18.461822 0.000000 -24.017477 4.446264 2.560071 0.275917 3.948932 -12.823535 0.930384 3.169632 -32.709943 0.532101 2.441452 -24.586545 -0.000000 -0.000001 -0.000003 6.445313 10.966571 14.479639 5.984690 12.665093 1.353282 -12.447912 -22.436879 6.210907 0.000001 0.000000 -0.000000 0.220103 3.703889 -13.236999 0.091413 1.031947 -10.123775 0.091411 1.031950 -10.123770 -0.000000 0.000000 -0.000002 0.534724 4.674613 -20.694823 1.135828 3.468241 -36.257386 0.787081 2.934862 -30.019101 -0.000001 0.000000 0.000003 0.491427 4.578015 -19.148393 1.214315 3.572588 -37.535550 0.845546 3.033680 -31.142077 0.000000 0.000001 0.000001 -0.028748 6.872839 11.236091 1.807767 -3.648254 72.493961 0.000002 13.228406 -0.000010 -4.658908 5.843483 -17.097020 2.772673 -6.512917 65.430098 3.890264 -4.593738 80.511456 3.890254 -4.593724 80.511435 0.000002 -0.000000 0.000001 13.625288 -5.511719 2.432805 6.358370 -14.447600 -2.112210 -5.504772 -5.510959 -14.718515 -0.000002 -0.000001 -0.000002 2.772671 -6.512915 65.430091 3.890243 -4.593701 80.511463 3.890255 -4.593726 80.511422 0.000002 -0.000000 -0.000001 2.772679 -6.512926 65.430091 3.890263 -4.593733 80.511470 3.890238 -4.593702 80.511422 -0.000002 0.000000 -0.000002 2.772671 -6.512909 65.430098 3.890257 -4.593727 80.511456 3.890247 -4.593717 80.511435 0.000001 0.000001 -0.000002 -2.654946 6.147040 -0.555553 10.357533 -2.408857 0.045563 -2.600579 -0.223982 0.388909 -1.868440 0.000004 0.000000 -0.000000 -0.000000 -0.000000 -6.575438 -15.297976 -7.587343 11.843462 6.249992 -0.760975 -1.262188 -0.349458 4.055654 -2.086503 -0.000000 -0.000001 -0.000000 -0.000001 0.000000 
-0.264383 200.658386 -0.422705 -4.980451 1.614617 1.048133 5.656587 -2.635456 -3.317670 4.480122 -0.754769 0.280327 1.094097 -0.875719 0.261865 -5.455790 1.408355 3.398550 3.136044 -1.710050 -1.043223 -0.000000 0.000000 -0.000000 -0.000000 0.000000 -0.000000 -0.000000 0.000000 -0.000000 0.585220 -3.361139 -3.523627 6.843757 -15.755657 -76.544646 -0.000001 -18.351349 0.000042 -23.967692 4.320575 2.532402 0.276121 3.949651 -12.830837 0.930786 3.170258 -32.717228 0.532412 2.442132 -24.593851 0.000002 0.000001 -0.000005 6.444239 10.978285 14.482178 5.986176 12.675738 1.354347 -12.444205 -22.425190 6.215482 0.000000 0.000000 0.000001 0.220275 3.704617 -13.244287 0.091543 1.032683 -10.131045 0.091541 1.032684 -10.131041 -0.000000 0.000000 -0.000001 0.535020 4.675302 -20.702114 1.136272 3.468841 -36.264688 0.787453 2.935508 -30.026389 -0.000000 -0.000000 -0.000003 0.491710 4.578711 -19.155721 1.214770 3.573177 -37.542821 0.845931 3.034318 -31.149368 0.000000 0.000001 0.000000 -0.079051 6.895814 11.203073 1.825850 -3.614891 72.541861 -0.000002 13.305831 0.000020 -4.816549 5.808500 -17.067697 2.772672 -6.512917 65.430091 3.890265 -4.593736 80.511449 3.890252 -4.593723 80.511435 0.000002 -0.000001 -0.000000 13.625287 -5.511719 2.432798 6.358373 -14.447600 -2.112208 -5.504773 -5.510960 -14.718518 -0.000002 0.000003 0.000001 2.772672 -6.512915 65.430084 3.890242 -4.593701 80.511463 3.890252 -4.593724 80.511415 0.000001 0.000000 -0.000000 2.772678 -6.512927 65.430091 3.890263 -4.593731 80.511476 3.890238 -4.593703 80.511422 -0.000002 0.000001 -0.000002 2.772671 -6.512909 65.430098 3.890256 -4.593728 80.511456 3.890247 -4.593718 80.511435 -0.000001 0.000001 -0.000001 -2.893813 6.115759 -0.394336 10.739750 -2.381522 0.040852 -2.813488 -0.236337 0.371036 -1.858054 -0.000002 0.000000 0.000000 0.000001 0.000000 -6.519925 -15.310354 -7.422309 11.749331 6.216501 -0.755572 -1.229685 -0.340820 4.032907 -2.086502 0.000003 0.000000 0.000000 -0.000000 0.000000 
